<svg width="307" height="181" viewBox="0 0 307 181" fill="none" xmlns="http://www.w3.org/2000/svg">
<path d="M14.0835 33H1.21953V16.92H14.0835V19.248H3.81153V23.76H13.7235V26.064H3.81153V30.672H14.0835V33ZM18.6943 33H16.1023V21.072H18.4783V24.768H18.6463C19.0063 22.752 20.5903 20.832 23.6143 20.832C26.9263 20.832 28.5583 23.064 28.5583 25.824V33H25.9663V26.52C25.9663 24.288 24.9583 23.16 22.4863 23.16C19.8703 23.16 18.6943 24.504 18.6943 27.096V33ZM38.692 33H35.956C33.388 33 31.804 31.872 31.804 28.968V23.232H29.788V21.072H31.804V18.456H34.372V21.072H38.692V23.232H34.372V28.824C34.372 30.288 35.044 30.672 36.532 30.672H38.692V33ZM46.3133 33.24C42.4013 33.24 39.8333 31.032 39.8333 27.048C39.8333 23.328 42.3773 20.832 46.2653 20.832C49.9613 20.832 52.4813 22.872 52.4813 26.496C52.4813 26.928 52.4573 27.264 52.3853 27.624H42.2573C42.3533 29.928 43.4813 31.152 46.2413 31.152C48.7373 31.152 49.7693 30.336 49.7693 28.92V28.728H52.3613V28.944C52.3613 31.488 49.8653 33.24 46.3133 33.24ZM46.2173 22.872C43.5773 22.872 42.4253 24.048 42.2813 26.184H50.0333V26.136C50.0333 23.928 48.7613 22.872 46.2173 22.872ZM57.0147 33H54.4227V21.072H56.7987V24.288H56.9667C57.3267 22.368 58.6227 20.832 61.0707 20.832C63.7827 20.832 64.9587 22.776 64.9587 25.032V26.592H62.3907V25.536C62.3907 23.832 61.6707 23.04 59.8947 23.04C57.8547 23.04 57.0147 24.168 57.0147 26.304V33ZM72.3683 33H69.4883L76.6643 16.92H80.3123L87.4883 33H84.5603L82.7123 28.824H74.2163L72.3683 33ZM77.4323 21.6L75.2483 26.496H81.6803L79.4963 21.6L78.5603 19.32H78.3683L77.4323 21.6ZM93.6563 33.24C90.2963 33.24 88.6643 31.008 88.6643 28.248V21.072H91.2323V27.552C91.2323 29.784 92.2643 30.912 94.7843 30.912C97.4243 30.912 98.6483 29.568 98.6483 26.976V21.072H101.216V33H98.8403V29.304H98.6963C98.3123 31.32 96.7283 33.24 93.6563 33.24ZM111.395 33H108.659C106.091 33 104.507 31.872 104.507 28.968V23.232H102.491V21.072H104.507V18.456H107.075V21.072H111.395V23.232H107.075V28.824C107.075 30.288 107.747 30.672 109.235 30.672H111.395V33ZM115.608 33H113.016V16.92H115.608V24.72H115.752C116.16 22.704 117.624 20.832 120.672 20.832C123.96 20.832 125.568 22.992 125.568 25.896V33H123V26.52C123 24.12 121.92 23.16 119.448 23.16C116.616 23.16 115.608 24.696 115.608 27.216V33ZM133.899 33.24C129.987 33.24 127.419 31.032 127.419 27.048C127.419 23.328 129.963 20.832 133.851 20.832C137.547 20.832 140.067 22.872 140.067 26.496C140.067 26.928 140.043 27.264 139.971 27.624H129.843C129.939 29.928 131.067 31.152 133.827 31.152C136.323 31.152 137.355 30.336 137.355 28.92V28.728H139.947V28.944C139.947 31.488 137.451 33.24 133.899 33.24ZM133.803 22.872C131.163 22.872 130.011 24.048 129.867 26.184H137.619V26.136C137.619 23.928 136.347 22.872 133.803 22.872ZM144.601 33H142.009V21.072H144.385V24.768H144.553C144.913 22.752 146.497 20.832 149.521 20.832C152.833 20.832 154.465 23.064 154.465 25.824V33H151.873V26.52C151.873 24.288 150.865 23.16 148.393 23.16C145.777 23.16 144.601 24.504 144.601 27.096V33ZM164.598 33H161.862C159.294 33 157.71 31.872 157.71 28.968V23.232H155.694V21.072H157.71V18.456H160.278V21.072H164.598V23.232H160.278V28.824C160.278 30.288 160.95 30.672 162.438 30.672H164.598V33ZM168.812 19.68H166.22V16.92H168.812V19.68ZM168.812 33H166.22V21.072H168.812V33ZM177.236 33.24C173.3 33.24 170.732 30.72 170.732 27.048C170.732 23.328 173.3 20.832 177.236 20.832C180.812 20.832 183.428 22.848 183.428 25.824V26.064H180.86V25.92C180.86 24.072 179.516 23.16 177.188 23.16C174.5 23.16 173.3 24.432 173.3 27.048C173.3 29.616 174.5 30.912 177.188 30.912C179.516 30.912 180.86 30 180.86 28.152V27.984H183.428V28.248C183.428 31.224 180.812 33.24 177.236 33.24ZM188.849 33.24C186.377 33.24 184.817 32.088 184.817 30.12C184.817 28.272 186.305 27.312 188.657 27.048L194.081 26.472V25.776C194.081 23.808 193.217 23.112 190.937 23.112C188.729 23.112 187.649 23.832 187.649 25.584V25.68H185.081V25.584C185.081 22.872 187.337 20.832 191.129 20.832C194.921 20.832 196.625 22.896 196.625 25.752V33H194.249V30.024H194.081C193.457 32.04 191.561 33.24 188.849 33.24ZM187.409 29.952C187.409 30.912 188.057 31.368 189.545 31.368C192.257 31.368 194.081 30.36 194.081 28.008L189.401 28.536C188.057 28.704 187.409 29.016 187.409 29.952ZM206.762 33H204.026C201.458 33 199.874 31.872 199.874 28.968V23.232H197.858V21.072H199.874V18.456H202.442V21.072H206.762V23.232H202.442V28.824C202.442 30.288 203.114 30.672 204.602 30.672H206.762V33ZM210.976 19.68H208.384V16.92H210.976V19.68ZM210.976 33H208.384V21.072H210.976V33ZM219.472 33.24C215.512 33.24 212.848 30.72 212.848 27.048C212.848 23.328 215.512 20.832 219.472 20.832C223.456 20.832 226.12 23.328 226.12 27.048C226.12 30.72 223.456 33.24 219.472 33.24ZM219.472 30.936C222.376 30.936 223.576 29.568 223.576 27.048C223.576 24.504 222.376 23.112 219.472 23.112C216.592 23.112 215.392 24.504 215.392 27.048C215.392 29.568 216.592 30.936 219.472 30.936ZM230.593 33H228.001V21.072H230.377V24.768H230.545C230.905 22.752 232.489 20.832 235.513 20.832C238.825 20.832 240.457 23.064 240.457 25.824V33H237.865V26.52C237.865 24.288 236.857 23.16 234.385 23.16C231.769 23.16 230.593 24.504 230.593 27.096V33ZM254.692 33.24C249.7 33.24 246.388 29.976 246.388 24.96C246.388 19.944 249.7 16.68 254.692 16.68C259.228 16.68 262.396 19.08 262.396 22.92V23.256H259.54V22.92C259.54 20.472 257.98 19.152 254.716 19.152C250.948 19.152 249.124 20.952 249.124 24.96C249.124 28.968 250.948 30.744 254.716 30.744C257.98 30.744 259.54 29.448 259.54 26.976V26.664H262.396V26.976C262.396 30.84 259.252 33.24 254.692 33.24ZM270.401 33.24C266.441 33.24 263.777 30.72 263.777 27.048C263.777 23.328 266.441 20.832 270.401 20.832C274.385 20.832 277.049 23.328 277.049 27.048C277.049 30.72 274.385 33.24 270.401 33.24ZM270.401 30.936C273.305 30.936 274.505 29.568 274.505 27.048C274.505 24.504 273.305 23.112 270.401 23.112C267.521 23.112 266.321 24.504 266.321 27.048C266.321 29.568 267.521 30.936 270.401 30.936ZM284.186 33.24C280.418 33.24 278.33 30.72 278.33 27.048C278.33 23.328 280.394 20.832 284.018 20.832C286.85 20.832 288.458 22.296 288.938 24.312H289.082V16.92H291.674V33H289.298V29.568H289.13C288.626 31.944 286.874 33.24 284.186 33.24ZM280.946 27.048C280.946 29.904 282.41 30.864 284.978 30.864C287.522 30.864 289.082 29.664 289.082 27.168V26.976C289.082 24.432 287.594 23.184 284.93 23.184C282.434 23.184 280.946 24.168 280.946 27.048ZM300.071 33.24C296.159 33.24 293.591 31.032 293.591 27.048C293.591 23.328 296.135 20.832 300.023 20.832C303.719 20.832 306.239 22.872 306.239 26.496C306.239 26.928 306.215 27.264 306.143 27.624H296.015C296.111 29.928 297.239 31.152 299.999 31.152C302.495 31.152 303.527 30.336 303.527 28.92V28.728H306.119V28.944C306.119 31.488 303.623 33.24 300.071 33.24ZM299.975 22.872C297.335 22.872 296.183 24.048 296.039 26.184H303.791V26.136C303.791 23.928 302.519 22.872 299.975 22.872Z" fill="#FCF7FC"/>
<rect x="0.5" y="60.5" width="49" height="49" rx="7.5" fill="white" fill-opacity="0.9"/>
<rect x="0.5" y="60.5" width="49" height="49" rx="7.5" stroke="#783888"/>
<circle cx="24" cy="85" r="5" fill="black"/>
<rect x="56.5" y="60.5" width="49" height="49" rx="7.5" fill="white" fill-opacity="0.9"/>
<rect x="56.5" y="60.5" width="49" height="49" rx="7.5" stroke="#783888"/>
<circle cx="80" cy="85" r="5" fill="black"/>
<rect x="112.5" y="60.5" width="49" height="49" rx="7.5" fill="white" fill-opacity="0.9"/>
<rect x="112.5" y="60.5" width="49" height="49" rx="7.5" stroke="#783888"/>
<circle cx="136" cy="85" r="5" fill="black"/>
<rect x="168.5" y="60.5" width="49" height="49" rx="7.5" fill="white" fill-opacity="0.9"/>
<rect x="168.5" y="60.5" width="49" height="49" rx="7.5" stroke="#783888"/>
<path d="M192.595 90.16C189.459 90.16 187.763 88.928 187.763 86.768V86.592H189.523V86.768C189.523 88.032 190.483 88.592 192.627 88.592C194.547 88.592 195.427 88.016 195.427 86.512C195.427 85.04 194.579 84.48 192.627 84.48C191.091 84.48 190.195 84.736 189.587 85.28L189.475 85.248V85.28L187.875 85.168L188.451 79.28H196.723V80.832H189.955L189.571 84.336L189.699 84.352C190.243 83.76 191.491 83.104 193.267 83.104C195.763 83.104 197.235 84.304 197.235 86.512C197.235 88.736 195.619 90.16 192.595 90.16Z" fill="black"/>
<rect x="0.55618" y="136.556" width="164.888" height="43.1348" rx="21.5674" fill="#783888"/>
<rect x="0.55618" y="136.556" width="164.888" height="43.1348" rx="21.5674" stroke="#83578E" stroke-width="1.11236"/>
<path d="M47.8469 154.416L44.3897 164.124H41.8617L38.4045 154.416H40.8441L43.0751 161.627H43.1763L45.4136 154.416H47.8469ZM53.3976 164.313C52.4243 164.313 51.5837 164.111 50.8759 163.706C50.1722 163.298 49.6308 162.72 49.2516 161.975C48.8724 161.225 48.6828 160.342 48.6828 159.326C48.6828 158.328 48.8724 157.451 49.2516 156.697C49.635 155.939 50.1701 155.349 50.8569 154.928C51.5437 154.502 52.3506 154.289 53.2776 154.289C53.8759 154.289 54.4405 154.386 54.9714 154.58C55.5065 154.77 55.9784 155.065 56.3871 155.465C56.8 155.865 57.1245 156.375 57.3604 156.994C57.5964 157.609 57.7144 158.343 57.7144 159.194V159.895H49.7572V158.353H55.5212C55.517 157.915 55.4222 157.525 55.2368 157.184C55.0514 156.838 54.7923 156.567 54.4594 156.369C54.1308 156.171 53.7474 156.072 53.3092 156.072C52.8415 156.072 52.4307 156.185 52.0767 156.413C51.7228 156.636 51.4468 156.931 51.2488 157.298C51.055 157.66 50.9559 158.058 50.9517 158.492V159.838C50.9517 160.403 51.055 160.888 51.2614 161.292C51.4679 161.692 51.7565 162 52.1273 162.215C52.4981 162.426 52.9321 162.531 53.4292 162.531C53.7621 162.531 54.0634 162.484 54.333 162.392C54.6027 162.295 54.8366 162.154 55.0346 161.968C55.2326 161.783 55.3822 161.553 55.4833 161.279L57.6196 161.52C57.4847 162.084 57.2277 162.577 56.8485 162.999C56.4735 163.416 55.9932 163.74 55.4075 163.972C54.8218 164.199 54.1519 164.313 53.3976 164.313ZM59.6499 164.124V154.416H61.8683V156.034H61.9695C62.1464 155.473 62.4498 155.041 62.8796 154.738C63.3136 154.43 63.8086 154.277 64.3648 154.277C64.4912 154.277 64.6324 154.283 64.7883 154.296C64.9484 154.304 65.0811 154.319 65.1864 154.34V156.444C65.0895 156.411 64.9357 156.381 64.7251 156.356C64.5186 156.326 64.3185 156.312 64.1246 156.312C63.7075 156.312 63.3325 156.402 62.9996 156.584C62.671 156.76 62.4119 157.007 62.2223 157.323C62.0327 157.639 61.9379 158.003 61.9379 158.416V164.124H59.6499ZM66.7065 164.124V154.416H68.9944V164.124H66.7065ZM67.8567 153.038C67.4944 153.038 67.1826 152.918 66.9213 152.678C66.6601 152.433 66.5295 152.14 66.5295 151.799C66.5295 151.454 66.6601 151.161 66.9213 150.921C67.1826 150.676 67.4944 150.554 67.8567 150.554C68.2233 150.554 68.5351 150.676 68.7921 150.921C69.0534 151.161 69.184 151.454 69.184 151.799C69.184 152.14 69.0534 152.433 68.7921 152.678C68.5351 152.918 68.2233 153.038 67.8567 153.038ZM76.2642 154.416V156.185H70.5255V154.416H76.2642ZM71.9601 164.124V153.499C71.9601 152.846 72.095 152.303 72.3646 151.869C72.6385 151.435 73.0051 151.11 73.4644 150.895C73.9236 150.68 74.4335 150.573 74.9939 150.573C75.3899 150.573 75.7417 150.605 76.0493 150.668C76.3569 150.731 76.5844 150.788 76.7319 150.838L76.2769 152.608C76.18 152.579 76.0578 152.549 75.9103 152.52C75.7628 152.486 75.5985 152.469 75.4173 152.469C74.9917 152.469 74.6905 152.572 74.5135 152.779C74.3408 152.981 74.2544 153.272 74.2544 153.651V164.124H71.9601ZM79.4781 167.764C79.1663 167.764 78.8776 167.739 78.6122 167.688C78.3509 167.642 78.1424 167.587 77.9865 167.524L78.5174 165.742C78.8502 165.838 79.1473 165.885 79.4085 165.881C79.6698 165.876 79.8994 165.794 80.0974 165.634C80.2997 165.478 80.4703 165.217 80.6094 164.85L80.8053 164.326L77.2849 154.416H79.7119L81.9493 161.747H82.0504L84.2941 154.416H86.7273L82.8404 165.299C82.6592 165.813 82.4191 166.253 82.1199 166.62C81.8207 166.991 81.4542 167.273 81.0202 167.467C80.5904 167.665 80.0764 167.764 79.4781 167.764ZM95.0132 158.435V164.124H92.7252V154.416H94.912V156.065H95.0258C95.2491 155.522 95.6052 155.09 96.0939 154.77C96.5869 154.449 97.1957 154.289 97.9205 154.289C98.5904 154.289 99.174 154.433 99.6712 154.719C100.173 155.006 100.56 155.421 100.834 155.964C101.112 156.508 101.249 157.167 101.245 157.942V164.124H98.957V158.296C98.957 157.647 98.7884 157.14 98.4514 156.773C98.1185 156.407 97.6571 156.223 97.0672 156.223C96.667 156.223 96.3109 156.312 95.9991 156.489C95.6915 156.661 95.4493 156.912 95.2723 157.241C95.0995 157.569 95.0132 157.968 95.0132 158.435ZM107.805 164.313C106.857 164.313 106.036 164.105 105.34 163.687C104.645 163.27 104.106 162.687 103.722 161.937C103.343 161.187 103.154 160.31 103.154 159.308C103.154 158.305 103.343 157.426 103.722 156.672C104.106 155.918 104.645 155.332 105.34 154.915C106.036 154.498 106.857 154.289 107.805 154.289C108.753 154.289 109.575 154.498 110.27 154.915C110.965 155.332 111.503 155.918 111.882 156.672C112.265 157.426 112.457 158.305 112.457 159.308C112.457 160.31 112.265 161.187 111.882 161.937C111.503 162.687 110.965 163.27 110.27 163.687C109.575 164.105 108.753 164.313 107.805 164.313ZM107.818 162.48C108.332 162.48 108.762 162.339 109.107 162.057C109.453 161.77 109.71 161.387 109.878 160.907C110.051 160.426 110.137 159.891 110.137 159.301C110.137 158.707 110.051 158.17 109.878 157.69C109.71 157.205 109.453 156.819 109.107 156.533C108.762 156.246 108.332 156.103 107.818 156.103C107.291 156.103 106.853 156.246 106.503 156.533C106.158 156.819 105.899 157.205 105.726 157.69C105.557 158.17 105.473 158.707 105.473 159.301C105.473 159.891 105.557 160.426 105.726 160.907C105.899 161.387 106.158 161.77 106.503 162.057C106.853 162.339 107.291 162.48 107.818 162.48ZM116.124 164.124L113.381 154.416H115.713L117.42 161.242H117.508L119.253 154.416H121.56L123.304 161.204H123.399L125.08 154.416H127.419L124.669 164.124H122.287L120.466 157.563H120.334L118.513 164.124H116.124Z" fill="white"/>
</svg>
