<svg width="37" height="37" viewBox="0 0 37 37" fill="none" xmlns="http://www.w3.org/2000/svg">
<path opacity="0.1" fill-rule="evenodd" clip-rule="evenodd" d="M18.5 36C28.165 36 36 28.165 36 18.5C36 8.83502 28.165 1 18.5 1C8.83502 1 1 8.83502 1 18.5C1 28.165 8.83502 36 18.5 36Z" stroke="#D0DAF5" stroke-width="2"/>
<path d="M20.1151 14H21.7304C21.879 14 21.9996 13.888 21.9996 13.75V12.25C21.9996 12.112 21.879 12 21.7304 12H20.1151C18.4826 12 17.1537 13.2335 17.1537 14.75V16.5H15.2692C15.1206 16.5 15 16.612 15 16.75V18.25C15 18.388 15.1206 18.5 15.2692 18.5H17.1537V23.75C17.1537 23.888 17.2743 24 17.423 24H19.0383C19.1869 24 19.3075 23.888 19.3075 23.75V18.5H21.192C21.3078 18.5 21.4106 18.431 21.4477 18.329L21.9862 16.829C22.0136 16.753 21.9996 16.669 21.949 16.6035C21.8979 16.5385 21.8171 16.5 21.7304 16.5H19.3075V14.75C19.3075 14.3365 19.6698 14 20.1151 14Z" fill="#D0DAF5"/>
</svg>
