<svg width="37" height="37" viewBox="0 0 37 37" fill="none" xmlns="http://www.w3.org/2000/svg">
<path opacity="0.1" fill-rule="evenodd" clip-rule="evenodd" d="M18.5 36C28.165 36 36 28.165 36 18.5C36 8.83502 28.165 1 18.5 1C8.83502 1 1 8.83502 1 18.5C1 28.165 8.83502 36 18.5 36Z" stroke="#D0DAF5" stroke-width="2"/>
<path d="M14.4998 14.9995C15.3282 14.9995 15.9996 14.3281 15.9996 13.4998C15.9996 12.6715 15.3282 12 14.4998 12C13.6715 12 13 12.6715 13 13.4998C13 14.3281 13.6715 14.9995 14.4998 14.9995Z" fill="#D0DAF5"/>
<path d="M15.75 16H13.25C13.112 16 13 16.112 13 16.25V23.75C13 23.888 13.112 24 13.25 24H15.75C15.888 24 16 23.888 16 23.75V16.25C16 16.112 15.888 16 15.75 16Z" fill="#D0DAF5"/>
<path d="M23.1985 15.1464C22.13 14.8019 20.7935 15.1045 19.992 15.6471C19.9645 15.5459 19.8665 15.4706 19.75 15.4706H17.25C17.112 15.4706 17 15.576 17 15.7059V22.7647C17 22.8946 17.112 23 17.25 23H19.75C19.888 23 20 22.8946 20 22.7647V17.6918C20.404 17.3643 20.9245 17.2598 21.3505 17.4301C21.7635 17.5944 22 17.9953 22 18.5294V22.7647C22 22.8946 22.112 23 22.25 23H24.75C24.888 23 25 22.8946 25 22.7647V18.0555C24.9715 16.1219 24.005 15.4061 23.1985 15.1464Z" fill="#D0DAF5"/>
</svg>
