<svg width="264" height="128" viewBox="0 0 264 128" fill="none" xmlns="http://www.w3.org/2000/svg">
<path d="M39.0557 15H30.4797V4.28H39.0557V5.832H32.2077V8.84H38.8157V10.376H32.2077V13.448H39.0557V15ZM42.1296 15H40.4016V7.048H41.9856V9.512H42.0976C42.3376 8.168 43.3936 6.888 45.4096 6.888C47.6176 6.888 48.7056 8.376 48.7056 10.216V15H46.9776V10.68C46.9776 9.192 46.3056 8.44 44.6576 8.44C42.9136 8.44 42.1296 9.336 42.1296 11.064V15ZM55.4613 15H53.6373C51.9253 15 50.8693 14.248 50.8693 12.312V8.488H49.5253V7.048H50.8693V5.304H52.5813V7.048H55.4613V8.488H52.5813V12.216C52.5813 13.192 53.0293 13.448 54.0213 13.448H55.4613V15ZM60.5422 15.16C57.9342 15.16 56.2222 13.688 56.2222 11.032C56.2222 8.552 57.9182 6.888 60.5102 6.888C62.9742 6.888 64.6542 8.248 64.6542 10.664C64.6542 10.952 64.6382 11.176 64.5902 11.416H57.8382C57.9022 12.952 58.6542 13.768 60.4942 13.768C62.1582 13.768 62.8462 13.224 62.8462 12.28V12.152H64.5742V12.296C64.5742 13.992 62.9102 15.16 60.5422 15.16ZM60.4782 8.248C58.7182 8.248 57.9502 9.032 57.8542 10.456H63.0222V10.424C63.0222 8.952 62.1742 8.248 60.4782 8.248ZM67.6764 15H65.9484V7.048H67.5324V9.192H67.6444C67.8844 7.912 68.7484 6.888 70.3804 6.888C72.1884 6.888 72.9724 8.184 72.9724 9.688V10.728H71.2604V10.024C71.2604 8.888 70.7804 8.36 69.5964 8.36C68.2364 8.36 67.6764 9.112 67.6764 10.536V15ZM77.9122 15H75.9922L80.7762 4.28H83.2082L87.9922 15H86.0402L84.8082 12.216H79.1442L77.9122 15ZM81.2882 7.4L79.8322 10.664H84.1202L82.6642 7.4L82.0402 5.88H81.9122L81.2882 7.4ZM92.1042 15.16C89.8642 15.16 88.7762 13.672 88.7762 11.832V7.048H90.4882V11.368C90.4882 12.856 91.1762 13.608 92.8562 13.608C94.6162 13.608 95.4322 12.712 95.4322 10.984V7.048H97.1442V15H95.5602V12.536H95.4642C95.2082 13.88 94.1522 15.16 92.1042 15.16ZM103.93 15H102.106C100.394 15 99.3381 14.248 99.3381 12.312V8.488H97.9941V7.048H99.3381V5.304H101.05V7.048H103.93V8.488H101.05V12.216C101.05 13.192 101.498 13.448 102.49 13.448H103.93V15ZM106.739 15H105.011V4.28H106.739V9.48H106.835C107.107 8.136 108.083 6.888 110.115 6.888C112.307 6.888 113.379 8.328 113.379 10.264V15H111.667V10.68C111.667 9.08 110.947 8.44 109.299 8.44C107.411 8.44 106.739 9.464 106.739 11.144V15ZM118.933 15.16C116.325 15.16 114.613 13.688 114.613 11.032C114.613 8.552 116.309 6.888 118.901 6.888C121.365 6.888 123.045 8.248 123.045 10.664C123.045 10.952 123.029 11.176 122.981 11.416H116.229C116.293 12.952 117.045 13.768 118.885 13.768C120.549 13.768 121.237 13.224 121.237 12.28V12.152H122.965V12.296C122.965 13.992 121.301 15.16 118.933 15.16ZM118.869 8.248C117.109 8.248 116.341 9.032 116.245 10.456H121.413V10.424C121.413 8.952 120.565 8.248 118.869 8.248ZM126.067 15H124.339V7.048H125.923V9.512H126.035C126.275 8.168 127.331 6.888 129.347 6.888C131.555 6.888 132.643 8.376 132.643 10.216V15H130.915V10.68C130.915 9.192 130.243 8.44 128.595 8.44C126.851 8.44 126.067 9.336 126.067 11.064V15ZM139.399 15H137.575C135.863 15 134.807 14.248 134.807 12.312V8.488H133.463V7.048H134.807V5.304H136.519V7.048H139.399V8.488H136.519V12.216C136.519 13.192 136.967 13.448 137.959 13.448H139.399V15ZM142.208 6.12H140.48V4.28H142.208V6.12ZM142.208 15H140.48V7.048H142.208V15ZM147.824 15.16C145.2 15.16 143.488 13.48 143.488 11.032C143.488 8.552 145.2 6.888 147.824 6.888C150.208 6.888 151.952 8.232 151.952 10.216V10.376H150.24V10.28C150.24 9.048 149.344 8.44 147.792 8.44C146 8.44 145.2 9.288 145.2 11.032C145.2 12.744 146 13.608 147.792 13.608C149.344 13.608 150.24 13 150.24 11.768V11.656H151.952V11.832C151.952 13.816 150.208 15.16 147.824 15.16ZM155.566 15.16C153.918 15.16 152.878 14.392 152.878 13.08C152.878 11.848 153.87 11.208 155.438 11.032L159.054 10.648V10.184C159.054 8.872 158.478 8.408 156.958 8.408C155.486 8.408 154.766 8.888 154.766 10.056V10.12H153.054V10.056C153.054 8.248 154.558 6.888 157.086 6.888C159.614 6.888 160.75 8.264 160.75 10.168V15H159.166V13.016H159.054C158.638 14.36 157.374 15.16 155.566 15.16ZM154.606 12.968C154.606 13.608 155.038 13.912 156.03 13.912C157.838 13.912 159.054 13.24 159.054 11.672L155.934 12.024C155.038 12.136 154.606 12.344 154.606 12.968ZM167.508 15H165.684C163.972 15 162.916 14.248 162.916 12.312V8.488H161.572V7.048H162.916V5.304H164.628V7.048H167.508V8.488H164.628V12.216C164.628 13.192 165.076 13.448 166.068 13.448H167.508V15ZM170.317 6.12H168.589V4.28H170.317V6.12ZM170.317 15H168.589V7.048H170.317V15ZM175.981 15.16C173.341 15.16 171.565 13.48 171.565 11.032C171.565 8.552 173.341 6.888 175.981 6.888C178.637 6.888 180.413 8.552 180.413 11.032C180.413 13.48 178.637 15.16 175.981 15.16ZM175.981 13.624C177.917 13.624 178.717 12.712 178.717 11.032C178.717 9.336 177.917 8.408 175.981 8.408C174.061 8.408 173.261 9.336 173.261 11.032C173.261 12.712 174.061 13.624 175.981 13.624ZM183.395 15H181.667V7.048H183.251V9.512H183.363C183.603 8.168 184.659 6.888 186.675 6.888C188.883 6.888 189.971 8.376 189.971 10.216V15H188.243V10.68C188.243 9.192 187.571 8.44 185.923 8.44C184.179 8.44 183.395 9.336 183.395 11.064V15ZM199.461 15.16C196.133 15.16 193.925 12.984 193.925 9.64C193.925 6.296 196.133 4.12 199.461 4.12C202.485 4.12 204.597 5.72 204.597 8.28V8.504H202.693V8.28C202.693 6.648 201.653 5.768 199.477 5.768C196.965 5.768 195.749 6.968 195.749 9.64C195.749 12.312 196.965 13.496 199.477 13.496C201.653 13.496 202.693 12.632 202.693 10.984V10.776H204.597V10.984C204.597 13.56 202.501 15.16 199.461 15.16ZM209.934 15.16C207.294 15.16 205.518 13.48 205.518 11.032C205.518 8.552 207.294 6.888 209.934 6.888C212.59 6.888 214.366 8.552 214.366 11.032C214.366 13.48 212.59 15.16 209.934 15.16ZM209.934 13.624C211.87 13.624 212.67 12.712 212.67 11.032C212.67 9.336 211.87 8.408 209.934 8.408C208.014 8.408 207.214 9.336 207.214 11.032C207.214 12.712 208.014 13.624 209.934 13.624ZM219.124 15.16C216.612 15.16 215.22 13.48 215.22 11.032C215.22 8.552 216.596 6.888 219.012 6.888C220.9 6.888 221.972 7.864 222.292 9.208H222.388V4.28H224.116V15H222.532V12.712H222.42C222.084 14.296 220.916 15.16 219.124 15.16ZM216.964 11.032C216.964 12.936 217.94 13.576 219.652 13.576C221.348 13.576 222.388 12.776 222.388 11.112V10.984C222.388 9.288 221.396 8.456 219.62 8.456C217.956 8.456 216.964 9.112 216.964 11.032ZM229.714 15.16C227.106 15.16 225.394 13.688 225.394 11.032C225.394 8.552 227.09 6.888 229.682 6.888C232.146 6.888 233.826 8.248 233.826 10.664C233.826 10.952 233.81 11.176 233.762 11.416H227.01C227.074 12.952 227.826 13.768 229.666 13.768C231.33 13.768 232.018 13.224 232.018 12.28V12.152H233.746V12.296C233.746 13.992 232.082 15.16 229.714 15.16ZM229.65 8.248C227.89 8.248 227.122 9.032 227.026 10.456H232.194V10.424C232.194 8.952 231.346 8.248 229.65 8.248Z" fill="#FCF7FC"/>
<rect x="49.688" y="26.5" width="37" height="37" rx="5.55505" fill="white" fill-opacity="0.9"/>
<rect x="49.688" y="26.5" width="37" height="37" rx="5.55505" stroke="#783888"/>
<circle cx="67.5686" cy="45" r="4" fill="black"/>
<rect x="92.2292" y="26.5" width="37" height="37" rx="5.55505" fill="white" fill-opacity="0.9"/>
<rect x="92.2292" y="26.5" width="37" height="37" rx="5.55505" stroke="#783888"/>
<circle cx="110.11" cy="45" r="4" fill="black"/>
<rect x="134.771" y="26.5" width="37" height="37" rx="5.55505" fill="white" fill-opacity="0.9"/>
<rect x="134.771" y="26.5" width="37" height="37" rx="5.55505" stroke="#783888"/>
<circle cx="152.651" cy="45" r="4" fill="black"/>
<rect x="177.312" y="26.5" width="37" height="37" rx="5.55505" fill="white" fill-opacity="0.9"/>
<rect x="177.312" y="26.5" width="37" height="37" rx="5.55505" stroke="#783888"/>
<path d="M195.264 48.62C192.912 48.62 191.64 47.696 191.64 46.076V45.944H192.96V46.076C192.96 47.024 193.68 47.444 195.288 47.444C196.728 47.444 197.388 47.012 197.388 45.884C197.388 44.78 196.752 44.36 195.288 44.36C194.136 44.36 193.464 44.552 193.008 44.96L192.924 44.936V44.96L191.724 44.876L192.156 40.46H198.36V41.624H193.284L192.996 44.252L193.092 44.264C193.5 43.82 194.436 43.328 195.768 43.328C197.64 43.328 198.744 44.228 198.744 45.884C198.744 47.552 197.532 48.62 195.264 48.62Z" fill="black"/>
<rect x="1" y="84.5" width="262" height="43" rx="21.5" fill="#783888"/>
<rect x="1" y="84.5" width="262" height="43" rx="21.5" stroke="#83578E"/>
<path d="M104.246 103.864L101.526 111.5H99.5376L96.8182 103.864H98.7372L100.492 109.536H100.572L102.332 103.864H104.246ZM108.612 111.649C107.846 111.649 107.185 111.49 106.628 111.172C106.075 110.85 105.649 110.396 105.351 109.81C105.052 109.22 104.903 108.525 104.903 107.727C104.903 106.941 105.052 106.252 105.351 105.658C105.652 105.062 106.073 104.598 106.613 104.266C107.154 103.932 107.788 103.764 108.518 103.764C108.988 103.764 109.432 103.84 109.85 103.993C110.271 104.142 110.642 104.374 110.964 104.689C111.288 105.004 111.544 105.405 111.729 105.892C111.915 106.376 112.008 106.953 112.008 107.622V108.174H105.748V106.961H110.282C110.279 106.616 110.205 106.31 110.059 106.041C109.913 105.769 109.709 105.556 109.447 105.4C109.189 105.244 108.887 105.166 108.542 105.166C108.175 105.166 107.851 105.256 107.573 105.435C107.295 105.61 107.077 105.842 106.922 106.131C106.769 106.416 106.691 106.729 106.688 107.07V108.129C106.688 108.573 106.769 108.955 106.932 109.273C107.094 109.588 107.321 109.83 107.613 109.999C107.904 110.164 108.246 110.247 108.637 110.247C108.899 110.247 109.136 110.211 109.348 110.138C109.56 110.062 109.744 109.951 109.9 109.805C110.055 109.659 110.173 109.478 110.253 109.263L111.933 109.452C111.827 109.896 111.625 110.284 111.327 110.615C111.032 110.943 110.654 111.198 110.193 111.381C109.732 111.56 109.205 111.649 108.612 111.649ZM113.53 111.5V103.864H115.275V105.136H115.355C115.494 104.696 115.733 104.356 116.071 104.117C116.412 103.875 116.801 103.754 117.239 103.754C117.338 103.754 117.449 103.759 117.572 103.769C117.698 103.776 117.802 103.787 117.885 103.804V105.46C117.809 105.433 117.688 105.41 117.522 105.39C117.36 105.367 117.203 105.355 117.05 105.355C116.722 105.355 116.427 105.426 116.165 105.569C115.907 105.708 115.703 105.902 115.554 106.151C115.404 106.399 115.33 106.686 115.33 107.011V111.5H113.53ZM119.081 111.5V103.864H120.881V111.5H119.081ZM119.986 102.78C119.701 102.78 119.455 102.685 119.25 102.496C119.045 102.304 118.942 102.074 118.942 101.805C118.942 101.534 119.045 101.303 119.25 101.114C119.455 100.922 119.701 100.826 119.986 100.826C120.274 100.826 120.519 100.922 120.722 101.114C120.927 101.303 121.03 101.534 121.03 101.805C121.03 102.074 120.927 102.304 120.722 102.496C120.519 102.685 120.274 102.78 119.986 102.78ZM126.599 103.864V105.256H122.085V103.864H126.599ZM123.214 111.5V103.143C123.214 102.629 123.32 102.201 123.532 101.86C123.747 101.519 124.036 101.263 124.397 101.094C124.758 100.925 125.159 100.841 125.6 100.841C125.912 100.841 126.188 100.866 126.43 100.915C126.672 100.965 126.851 101.01 126.967 101.05L126.609 102.442C126.533 102.419 126.437 102.395 126.321 102.372C126.205 102.346 126.076 102.332 125.933 102.332C125.598 102.332 125.361 102.414 125.222 102.576C125.086 102.735 125.018 102.964 125.018 103.262V111.5H123.214ZM129.127 114.364C128.882 114.364 128.655 114.344 128.446 114.304C128.241 114.268 128.077 114.224 127.954 114.175L128.372 112.773C128.633 112.849 128.867 112.885 129.073 112.882C129.278 112.879 129.459 112.814 129.615 112.688C129.774 112.566 129.908 112.36 130.017 112.072L130.171 111.659L127.402 103.864H129.311L131.071 109.631H131.151L132.916 103.864H134.83L131.772 112.425C131.63 112.829 131.441 113.175 131.205 113.464C130.97 113.755 130.682 113.978 130.34 114.13C130.002 114.286 129.598 114.364 129.127 114.364ZM141.347 107.026V111.5H139.548V103.864H141.268V105.161H141.357C141.533 104.734 141.813 104.394 142.198 104.142C142.585 103.89 143.064 103.764 143.634 103.764C144.161 103.764 144.62 103.877 145.012 104.102C145.406 104.328 145.711 104.654 145.926 105.082C146.145 105.509 146.253 106.028 146.249 106.638V111.5H144.45V106.916C144.45 106.406 144.317 106.006 144.052 105.718C143.79 105.43 143.427 105.286 142.963 105.286C142.648 105.286 142.368 105.355 142.123 105.494C141.881 105.63 141.691 105.827 141.551 106.086C141.415 106.344 141.347 106.658 141.347 107.026ZM151.41 111.649C150.664 111.649 150.018 111.485 149.471 111.157C148.924 110.829 148.5 110.37 148.198 109.78C147.9 109.19 147.751 108.5 147.751 107.712C147.751 106.923 147.9 106.232 148.198 105.638C148.5 105.045 148.924 104.585 149.471 104.256C150.018 103.928 150.664 103.764 151.41 103.764C152.156 103.764 152.802 103.928 153.349 104.256C153.896 104.585 154.318 105.045 154.617 105.638C154.918 106.232 155.069 106.923 155.069 107.712C155.069 108.5 154.918 109.19 154.617 109.78C154.318 110.37 153.896 110.829 153.349 111.157C152.802 111.485 152.156 111.649 151.41 111.649ZM151.42 110.207C151.824 110.207 152.162 110.096 152.434 109.874C152.706 109.649 152.908 109.347 153.041 108.969C153.177 108.592 153.244 108.171 153.244 107.707C153.244 107.239 153.177 106.817 153.041 106.439C152.908 106.058 152.706 105.754 152.434 105.529C152.162 105.304 151.824 105.191 151.42 105.191C151.006 105.191 150.661 105.304 150.386 105.529C150.114 105.754 149.91 106.058 149.774 106.439C149.642 106.817 149.575 107.239 149.575 107.707C149.575 108.171 149.642 108.592 149.774 108.969C149.91 109.347 150.114 109.649 150.386 109.874C150.661 110.096 151.006 110.207 151.42 110.207ZM157.954 111.5L155.796 103.864H157.631L158.973 109.233H159.043L160.415 103.864H162.229L163.602 109.203H163.676L164.999 103.864H166.838L164.675 111.5H162.801L161.369 106.339H161.265L159.833 111.5H157.954Z" fill="white"/>
</svg>
