<svg width="37" height="37" viewBox="0 0 37 37" fill="none" xmlns="http://www.w3.org/2000/svg">
<path opacity="0.1" fill-rule="evenodd" clip-rule="evenodd" d="M18.5 36C28.165 36 36 28.165 36 18.5C36 8.83502 28.165 1 18.5 1C8.83502 1 1 8.83502 1 18.5C1 28.165 8.83502 36 18.5 36Z" stroke="#D0DAF5" stroke-width="2"/>
<path d="M23.9319 15.2181C23.8525 15.1297 23.7247 15.1074 23.6199 15.162C23.5546 15.1958 23.432 15.2403 23.2865 15.2842C23.4701 15.0365 23.6178 14.7591 23.683 14.5098C23.7112 14.4023 23.6699 14.2891 23.5802 14.225C23.4905 14.1615 23.371 14.1615 23.2813 14.225C23.1399 14.3251 22.4574 14.6257 22.026 14.7231C21.0508 13.8566 19.9161 13.7666 18.7364 14.4653C17.7775 15.0333 17.5688 16.1884 17.6095 16.8924C15.4146 16.678 14.0502 15.5018 13.2822 14.5283C13.2285 14.46 13.1419 14.424 13.0605 14.4293C12.9749 14.4357 12.8977 14.4839 12.8539 14.5585C12.4908 15.1805 12.3901 15.8681 12.5638 16.5473C12.6588 16.9178 12.8247 17.2444 13.0172 17.5091C12.9249 17.463 12.8356 17.4053 12.7516 17.3365C12.6744 17.2719 12.5664 17.2598 12.4751 17.3027C12.3843 17.3466 12.3264 17.4398 12.3264 17.5419C12.3264 18.7081 13.0454 19.4862 13.7169 19.8928C13.6083 19.8795 13.4951 19.8552 13.3809 19.8197C13.2828 19.7895 13.1763 19.8197 13.1085 19.8981C13.0407 19.9759 13.0245 20.087 13.0668 20.1818C13.444 21.0282 14.1588 21.6105 15.0431 21.8217C14.2709 22.2817 13.2374 22.5072 12.291 22.3966C12.1683 22.3791 12.0515 22.458 12.0129 22.5776C11.9743 22.6973 12.0249 22.8285 12.1329 22.89C13.5687 23.7078 14.8667 24 15.9885 24C17.621 24 18.881 23.3817 19.6479 22.8645C21.7155 21.4723 23.0042 18.9728 22.8247 16.7362C23.156 16.488 23.6517 16.0296 23.959 15.5367C24.0226 15.4372 24.0112 15.3059 23.9319 15.2181Z" fill="#D0DAF5"/>
</svg>
